PathFileType	4	(X/Y/Z)	C:\Users\WrightLab\Desktop\Jo\P1_boxCal16.trc
DataRate	CameraRate	NumFrames	NumMarkers	Units	OrigDataRate	OrigDataStartFrame	OrigNumFrames
100.00	100.00	      9	19	mm	100.00	287	      1146
Frame#	Time	Headset_Front			Headset_Back			Headset_Left			Headset_Right			Left_Shoulder			Right_Shoulder			Sternum			C7			Left Elbow			Right Elbow			Left Wrist			Right Wrist			Left ASIS			Right ASIS			S2			Left Knee			Right Knee			Left Ankle			Right Ankle			
		X1	Y1	Z1	X2	Y2	Z2	X3	Y3	Z3	X4	Y4	Z4	X5	Y5	Z5	X6	Y6	Z6	X7	Y7	Z7	X8	Y8	Z8	X9	Y9	Z9	X10	Y10	Z10	X11	Y11	Z11	X12	Y12	Z12	X13	Y13	Z13	X14	Y14	Z14	X15	Y15	Z15	X16	Y16	Z16	X17	Y17	Z17	X18	Y18	Z18	X19	Y19	Z19	

287	2.860	-242.25842	1438.85229	852.64606				-348.71616	1285.48621	819.00220	-89.14774	1472.66016	686.32904	-55.17879	971.40717	457.45013	54.11706	513.15063	662.81671							-78.24609	1289.30750	544.91339				-287.84738	1298.13391	593.93347	-242.69743	1543.19946	649.64124	-131.92323	1192.85291	787.92291				-40.49885	911.51776	739.03735	-320.75836	904.84247	557.28973	57.34222	791.54803	473.79800	-196.37971	907.97498	863.55426				
288	2.870	-236.83931	1439.22595	859.26312				-343.68414	1285.18433	826.23486	-83.44170	1471.98535	694.02899	-50.19760	971.41937	464.11908	60.60105	514.68781	672.94244							-72.54854	1289.21692	552.38043				-281.85709	1297.83142	600.87830	-237.08298	1543.01208	656.00787	-126.92495	1191.65295	795.96515				-36.33897	911.19769	746.03381	-314.67395	905.25720	563.12988	61.34379	791.12122	479.76587	-192.73775	906.63049	869.67816				
289	2.880	-231.89499	1439.58997	866.51331				-338.72116	1284.83545	833.08441	-78.20126	1471.96936	700.19580	-45.75342	971.67957	470.75217	65.30627	515.91132	683.13898							-66.82389	1288.42322	560.05676				-276.67053	1297.80029	607.92908	-231.73535	1542.45422	662.59058	-122.49298	1191.50781	803.37183				-31.98681	910.68427	753.85193	-308.08301	905.23712	568.47009	65.54517	790.59265	485.13458	-189.19772	906.99377	875.61407				
290	2.890	-226.85251	1439.49744	873.59796				-333.70737	1284.79236	840.16833	-72.77424	1471.52966	707.65308	-40.33071	971.23419	477.21106	70.44902	516.14630	693.22223							-60.74799	1288.36218	567.44043				-270.99036	1297.68384	614.93677	-226.51981	1541.75867	669.60791	-117.02061	1190.33167	810.28931				-27.30801	909.12579	761.07880	-301.10416	905.53137	574.13049	70.27500	789.98486	491.62775	-185.12798	906.03619	883.23212				
291	2.900	-221.40437	1439.11584	880.68738				-328.17163	1283.64270	846.56482	-67.23127	1470.84741	714.31049	-35.48803	970.31256	485.13016	74.74677	515.75214	703.31244							-54.78995	1287.46094	575.70892				-265.10629	1297.15564	621.87628	-220.96762	1540.89001	676.02472	-112.72376	1189.26855	817.96289				-22.83151	908.30768	768.32965	-294.88486	904.77490	579.94757	75.09273	788.51556	498.30560	-180.95769	904.73956	889.76898				
292	2.910	-215.68750	1438.80518	887.10632				-323.35428	1282.59668	853.63330	-62.01868	1469.93835	720.81274	-29.56480	969.35931	492.61621	78.76734	515.17609	713.16522							-49.20543	1286.21887	583.67627				-259.18863	1296.14758	628.77185	-215.52646	1540.05505	682.85992	-107.17245	1187.95935	825.12408				-18.25958	907.34613	776.04730	-287.84848	903.90930	585.28845	80.09637	788.06116	504.27106	-176.32674	903.42902	897.48822				
293	2.920	-210.99765	1438.61584	894.67664				-317.98511	1281.54285	860.46155	-56.22324	1468.84753	729.01990	-24.10166	968.51093	500.08725	82.51637	513.71063	721.91193							-42.46194	1285.24585	591.17993				-252.83846	1295.34668	635.97522	-209.86522	1539.34998	689.70343	-102.36179	1186.83582	832.87860				-12.86920	905.48431	782.89044	-280.89954	903.77899	590.94086	85.14767	786.96149	510.73254	-172.50819	900.65002	903.43042				
294	2.930	-205.39503	1438.05627	901.74738				-312.61877	1280.57568	867.14709	-50.85294	1468.31860	736.11353	-17.95622	967.05621	507.84030	86.33662	511.73349	730.69501							-35.99157	1284.05334	599.09888				-247.20932	1294.74646	642.83234	-204.20341	1538.36877	696.75433	-97.04889	1185.05078	840.82721				-7.89551	903.68445	791.33710	-274.67285	902.86365	596.66553	90.39985	785.97253	517.22699	-167.73405	899.34442	909.22827				
295	2.940	-199.75284	1437.02112	908.83411				-307.43387	1279.12878	874.31952	-45.03871	1467.36621	743.31415	-11.23286	965.92700	515.17529	90.25971	510.11002	738.86639							-29.85776	1283.32605	607.04327				-240.38289	1293.78235	650.00507	-198.26773	1536.95361	703.20435	-91.67796	1183.20898	848.56030				-1.98690	902.16486	797.90228	-268.48535	902.60602	602.52240	96.47335	784.99823	524.20917	-163.30099	896.57764	916.29285				
